<?xml version="1.0" standalone="no"?><!DOCTYPE svg PUBLIC "-//W3C//DTD SVG 1.1//EN" "http://www.w3.org/Graphics/SVG/1.1/DTD/svg11.dtd"><svg t="1646800847187" class="icon" viewBox="0 0 1024 1024" version="1.1" xmlns="http://www.w3.org/2000/svg" p-id="7157" xmlns:xlink="http://www.w3.org/1999/xlink" width="200" height="200"><defs><style type="text/css"></style></defs><path d="M477.607998 167.728825a113.664 113.664 0 1 0 209.847128-87.419691 113.664 113.664 0 1 0-209.847128 87.419691Z" fill="#515151" p-id="7158"></path><path d="M783.36 935.936L727.04 727.04c-1.024-5.12-3.072-9.216-5.12-13.312-2.048-14.336-8.192-34.816-25.6-58.368-35.84-48.128-166.912-71.68-179.2-59.392-12.288 12.288-50.176 146.432-50.176 146.432 67.584-5.12 101.376 10.24 118.784 24.576l56.32 206.848c9.216 32.768 41.984 52.224 74.752 43.008l23.552-6.144c32.768-8.192 52.224-41.984 43.008-74.752z" fill="#515151" p-id="7159"></path><path d="M939.008 444.416l-6.144-45.056c-3.072-20.48-21.504-33.792-41.984-30.72l-174.08 26.624c-3.072-7.168-9.216-19.456-20.48-37.888-23.552-35.84-71.68-83.968-202.752-107.52S276.48 320.512 276.48 320.512c-2.048 2.048-4.096 4.096-6.144 7.168L146.432 523.264c-11.264 17.408-6.144 39.936 11.264 51.2l38.912 24.576c17.408 11.264 39.936 6.144 51.2-11.264l118.784-189.44c47.104-2.048 24.576 37.888 24.576 37.888L283.648 769.024s-12.288 0-17.408 1.024l-133.12-66.56c-24.576-12.288-54.272-2.048-65.536 22.528L52.224 757.76c-12.288 24.576-2.048 54.272 22.528 65.536l216.064 106.496c16.384 8.192 34.816 6.144 49.152-3.072 3.072 6.144 11.264-7.168 11.264-7.168C471.04 788.48 595.968 447.488 595.968 447.488c12.288 35.84 46.08 55.296 46.08 55.296 7.168 13.312 22.528 21.504 37.888 19.456l229.376-34.816c19.456-4.096 32.768-22.528 29.696-43.008z" fill="#515151" p-id="7160"></path></svg>